 <svg class="pokeball" width="53" height="53" viewBox="0 0 53 53" fill="none" xmlns="http://www.w3.org/2000/svg">
        <g filter="url(#filter0_f)">
            <path
                d="M26.5 47.8825C38.3093 47.8825 47.8827 38.3091 47.8827 26.4998C47.8827 14.6904 38.3093 5.1171 26.5 5.1171C14.6907 5.1171 5.1173 14.6904 5.1173 26.4998C5.1173 38.3091 14.6907 47.8825 26.5 47.8825Z"
                fill="black" stroke="black" stroke-width="0.804222" stroke-linejoin="round" />
            <path
                d="M26.5106 4C14.6393 4 4.9151 13.1892 4.06111 24.8424H16.3453C16.7412 22.4165 17.9866 20.2102 19.8591 18.6178C21.7316 17.0254 24.1092 16.1505 26.5673 16.1495C29.03 16.153 31.411 17.0336 33.2834 18.6335C35.1558 20.2333 36.3971 22.4477 36.7848 24.8798H36.7929V24.8424H48.9389C47.9625 14.6906 38.2949 4 26.5105 4H26.5106Z"
                fill="black" stroke="black" stroke-width="0.846667" stroke-linejoin="round" />
            <path
                d="M26.5 18.83C24.4659 18.83 22.5151 19.6381 21.0767 21.0764C19.6384 22.5148 18.8304 24.4655 18.8304 26.4997C18.8303 27.5069 19.0287 28.5042 19.4141 29.4348C19.7995 30.3653 20.3645 31.2108 21.0767 31.923C21.7889 32.6353 22.6344 33.2002 23.5649 33.5857C24.4954 33.9711 25.4928 34.1695 26.5 34.1695C27.5072 34.1695 28.5045 33.9711 29.4351 33.5857C30.3656 33.2002 31.2111 32.6353 31.9233 31.9231C32.6355 31.2108 33.2005 30.3653 33.5859 29.4348C33.9713 28.5042 34.1697 27.5069 34.1696 26.4997C34.1696 24.4655 33.3616 22.5147 31.9232 21.0764C30.4849 19.6381 28.5341 18.83 26.5 18.83V18.83ZM26.5 23.7251C27.2359 23.7251 27.9416 24.0174 28.462 24.5377C28.9824 25.058 29.2747 25.7638 29.2748 26.4997C29.2748 26.8641 29.203 27.2249 29.0636 27.5615C28.9241 27.8982 28.7198 28.2041 28.4621 28.4618C28.2044 28.7194 27.8985 28.9238 27.5619 29.0632C27.2252 29.2027 26.8644 29.2745 26.5 29.2744C25.7641 29.2744 25.0584 28.9821 24.538 28.4617C24.0177 27.9413 23.7254 27.2355 23.7254 26.4997C23.7255 25.7638 24.0178 25.0581 24.5381 24.5378C25.0584 24.0175 25.7642 23.7252 26.5 23.7251V23.7251Z"
                fill="black" stroke="black" stroke-width="0.846667" stroke-linejoin="round" />
            <path
                d="M4 27.1221C4.33568 39.2616 14.2814 48.9996 26.502 48.9996C38.6877 48.9996 48.6107 37.5683 49 27.1221H36.8982C36.7369 29.7551 35.5774 32.2274 33.6562 34.035C31.7349 35.8426 29.1966 36.8494 26.5587 36.8501C23.9225 36.8469 21.3865 35.8391 19.4673 34.0317C17.5482 32.2244 16.39 29.7534 16.2288 27.1221H4Z"
                fill="black" stroke="black" stroke-width="0.846667" stroke-linejoin="round" />
            <path
                d="M26.5106 4C14.6393 4 4.9151 13.1892 4.06111 24.8424H16.3453C16.7412 22.4165 17.9866 20.2102 19.8591 18.6178C21.7316 17.0254 24.1092 16.1505 26.5673 16.1495C29.03 16.153 31.411 17.0336 33.2834 18.6335C35.1558 20.2333 36.3971 22.4477 36.7848 24.8798H36.7929V24.8424H48.9389C47.9625 14.6906 38.2949 4 26.5105 4H26.5106Z"
                fill="black" stroke="black" stroke-width="0.846667" stroke-linejoin="round" />
        </g>
        <path
            d="M26.5 47.8825C38.3093 47.8825 47.8827 38.3091 47.8827 26.4998C47.8827 14.6904 38.3093 5.1171 26.5 5.1171C14.6907 5.1171 5.1173 14.6904 5.1173 26.4998C5.1173 38.3091 14.6907 47.8825 26.5 47.8825Z"
            fill="black" stroke="black" stroke-width="0.804222" stroke-linejoin="round" />
        <path
            d="M26.5106 4C14.6393 4 4.9151 13.1892 4.06111 24.8424H16.3453C16.7412 22.4165 17.9866 20.2102 19.8591 18.6178C21.7316 17.0254 24.1092 16.1505 26.5673 16.1495C29.03 16.153 31.411 17.0336 33.2834 18.6335C35.1558 20.2333 36.3971 22.4477 36.7848 24.8798H36.7929V24.8424H48.9389C47.9625 14.6906 38.2949 4 26.5105 4H26.5106Z"
            fill="#FF0000" stroke="black" stroke-width="0.846667" stroke-linejoin="round" />
        <path
            d="M26.5 18.83C24.4659 18.83 22.5151 19.6381 21.0767 21.0764C19.6384 22.5148 18.8304 24.4655 18.8304 26.4997C18.8303 27.5069 19.0287 28.5042 19.4141 29.4348C19.7995 30.3653 20.3645 31.2108 21.0767 31.923C21.7889 32.6353 22.6344 33.2002 23.5649 33.5857C24.4954 33.9711 25.4928 34.1695 26.5 34.1695C27.5072 34.1695 28.5045 33.9711 29.4351 33.5857C30.3656 33.2002 31.2111 32.6353 31.9233 31.9231C32.6355 31.2108 33.2005 30.3653 33.5859 29.4348C33.9713 28.5042 34.1697 27.5069 34.1696 26.4997C34.1696 24.4655 33.3616 22.5147 31.9232 21.0764C30.4849 19.6381 28.5341 18.83 26.5 18.83V18.83ZM26.5 23.7251C27.2359 23.7251 27.9416 24.0174 28.462 24.5377C28.9824 25.058 29.2747 25.7638 29.2748 26.4997C29.2748 26.8641 29.203 27.2249 29.0636 27.5615C28.9241 27.8982 28.7198 28.2041 28.4621 28.4618C28.2044 28.7194 27.8985 28.9238 27.5619 29.0632C27.2252 29.2027 26.8644 29.2745 26.5 29.2744C25.7641 29.2744 25.0584 28.9821 24.538 28.4617C24.0177 27.9413 23.7254 27.2355 23.7254 26.4997C23.7255 25.7638 24.0178 25.0581 24.5381 24.5378C25.0584 24.0175 25.7642 23.7252 26.5 23.7251V23.7251Z"
            fill="#F2F2F2" stroke="black" stroke-width="0.846667" stroke-linejoin="round" />
        <path
            d="M4 27.1221C4.33568 39.2616 14.2814 48.9996 26.502 48.9996C38.6877 48.9996 48.6107 37.5683 49 27.1221H36.8982C36.7369 29.7551 35.5774 32.2274 33.6562 34.035C31.7349 35.8426 29.1966 36.8494 26.5587 36.8501C23.9225 36.8469 21.3865 35.8391 19.4673 34.0317C17.5482 32.2244 16.39 29.7534 16.2288 27.1221H4Z"
            fill="#F9F9F9" stroke="black" stroke-width="0.846667" stroke-linejoin="round" />
        <path
            d="M26.5106 4C14.6393 4 4.9151 13.1892 4.06111 24.8424H16.3453C16.7412 22.4165 17.9866 20.2102 19.8591 18.6178C21.7316 17.0254 24.1092 16.1505 26.5673 16.1495C29.03 16.153 31.411 17.0336 33.2834 18.6335C35.1558 20.2333 36.3971 22.4477 36.7848 24.8798H36.7929V24.8424H48.9389C47.9625 14.6906 38.2949 4 26.5105 4H26.5106Z"
            fill="url(#paint0_linear)" stroke="black" stroke-width="0.846667" stroke-linejoin="round" />
        <defs>
            <filter id="filter0_f" x="0.191702" y="0.191696" width="52.6166" height="52.6162"
                filterUnits="userSpaceOnUse" color-interpolation-filters="sRGB">
                <feFlood flood-opacity="0" result="BackgroundImageFix" />
                <feBlend mode="normal" in="SourceGraphic" in2="BackgroundImageFix" result="shape" />
                <feGaussianBlur stdDeviation="1.69248" result="effect1_foregroundBlur" />
            </filter>
            <linearGradient id="paint0_linear" x1="26.5683" y1="-3.63317" x2="35.5728" y2="43.6404"
                gradientUnits="userSpaceOnUse">
                <stop stop-color="white" />
                <stop offset="1" stop-color="#FF0000" stop-opacity="0" />
            </linearGradient>
        </defs>
    </svg>