<svg width="35" height="15" viewBox="0 0 35 15" fill="none" xmlns="http://www.w3.org/2000/svg">
<path d="M24.534 6.75635L24.534 6.75633L14.9224 2.63702L14.7254 3.0966L14.9223 2.63702C14.5133 2.46173 14.0089 2.44749 13.6163 2.51718C13.4176 2.55247 13.2073 2.61599 13.0322 2.7225C12.8716 2.82016 12.625 3.03048 12.625 3.38069V11.6193C12.625 11.9695 12.8716 12.1798 13.0322 12.2775C13.2073 12.384 13.4176 12.4475 13.6163 12.4828C14.009 12.5525 14.5134 12.5383 14.9223 12.363L24.534 8.2437C24.7563 8.14844 25.1116 7.92329 25.1116 7.50003C25.1116 7.07679 24.7563 6.85163 24.534 6.75635ZM3.75 0.5H31.25C32.2345 0.5 33.102 0.671979 33.7047 0.93029C34.007 1.05983 34.2196 1.20123 34.3494 1.33278C34.4771 1.46218 34.5 1.55432 34.5 1.60714V13.3929C34.5 13.4457 34.4771 13.5378 34.3494 13.6672C34.2196 13.7988 34.007 13.9402 33.7047 14.0697C33.102 14.328 32.2345 14.5 31.25 14.5H3.75C2.76554 14.5 1.89802 14.328 1.2953 14.0697C0.993048 13.9402 0.780394 13.7988 0.650566 13.6672C0.52286 13.5378 0.5 13.4457 0.5 13.3929V1.60714C0.5 1.55432 0.52286 1.46218 0.650566 1.33278C0.780394 1.20123 0.993047 1.05983 1.2953 0.93029C1.89802 0.671979 2.76554 0.5 3.75 0.5Z" fill="#C4C4C4" stroke="none"/>
</svg>
