<svg width="15" height="35" viewBox="0 0 15 35" fill="none" xmlns="http://www.w3.org/2000/svg">
<path d="M8.24365 24.534L8.24367 24.534L12.363 14.9224L11.9034 14.7254L12.363 14.9223C12.5383 14.5133 12.5525 14.0089 12.4828 13.6163C12.4475 13.4176 12.384 13.2073 12.2775 13.0322C12.1798 12.8716 11.9695 12.625 11.6193 12.625H3.38073C3.03049 12.625 2.82018 12.8716 2.72253 13.0322C2.61602 13.2073 2.5525 13.4176 2.51721 13.6163C2.44752 14.009 2.46174 14.5134 2.63702 14.9223L6.7563 24.534C6.85156 24.7563 7.07671 25.1116 7.49997 25.1116C7.92321 25.1116 8.14837 24.7563 8.24365 24.534ZM14.5 3.75L14.5 31.25C14.5 32.2345 14.328 33.102 14.0697 33.7047C13.9402 34.007 13.7988 34.2196 13.6672 34.3494C13.5378 34.4771 13.4457 34.5 13.3929 34.5H1.60714C1.55432 34.5 1.46218 34.4771 1.33278 34.3494C1.20123 34.2196 1.05983 34.007 0.93029 33.7047C0.671979 33.102 0.5 32.2345 0.5 31.25L0.5 3.75C0.5 2.76554 0.671979 1.89802 0.93029 1.2953C1.05983 0.993048 1.20123 0.780394 1.33278 0.650566C1.46218 0.52286 1.55432 0.5 1.60714 0.5L13.3929 0.5C13.4457 0.5 13.5378 0.52286 13.6672 0.650566C13.7988 0.780394 13.9402 0.993047 14.0697 1.2953C14.328 1.89802 14.5 2.76554 14.5 3.75Z" fill="#C4C4C4" stroke="none"/>
</svg>
