<svg width="30" height="33" viewBox="0 0 30 33" fill="none" xmlns="http://www.w3.org/2000/svg">
<path d="M0.782151 2.28105L0.782125 2.28102C0.484281 1.9561 0.432482 1.50712 0.577756 1.12509C0.72271 0.74391 1.03174 0.5 1.40788 0.5H28.5923C28.9696 0.5 29.2781 0.744175 29.4226 1.12533C29.5676 1.50777 29.5152 1.95697 29.2181 2.28104L29.2181 2.28105L18.3814 14.1044L18.25 14.2478V14.4423V31.1919C18.25 31.6352 18.0252 31.9594 17.745 32.1173C17.4683 32.2732 17.1325 32.2741 16.8408 32.0513L16.8407 32.0513L12.1533 28.4731C12.1533 28.4731 12.1532 28.473 12.1532 28.473C11.9093 28.2867 11.75 27.9689 11.75 27.6136V14.4423V14.2478L11.6186 14.1044L0.782151 2.28105Z" fill="#C4C4C4" stroke="black"/>
</svg>
