<svg width="35" height="15" viewBox="0 0 35 15" fill="none" xmlns="http://www.w3.org/2000/svg">
<path d="M10.466 8.24367L10.466 8.24365C10.2437 8.14837 9.8884 7.92321 9.8884 7.49997C9.8884 7.07671 10.2437 6.85156 10.466 6.7563L20.0777 2.63702C20.4866 2.46174 20.991 2.44752 21.3837 2.51722C21.5824 2.5525 21.7927 2.61602 21.9678 2.72253C22.1284 2.82018 22.375 3.03049 22.375 3.38073V11.6193C22.375 11.9695 22.1284 12.1798 21.9678 12.2775C21.7927 12.384 21.5824 12.4475 21.3837 12.4828C20.9911 12.5525 20.4867 12.5383 20.0777 12.363L20.2746 11.9034L20.0776 12.363L10.466 8.24367ZM3.75 14.5H31.25C32.2345 14.5 33.102 14.328 33.7047 14.0697C34.007 13.9402 34.2196 13.7988 34.3494 13.6672C34.4771 13.5378 34.5 13.4457 34.5 13.3929V1.60714C34.5 1.55432 34.4771 1.46218 34.3494 1.33278C34.2196 1.20123 34.007 1.05983 33.7047 0.93029C33.102 0.671979 32.2345 0.5 31.25 0.5H3.75C2.76554 0.5 1.89803 0.671979 1.2953 0.93029C0.993046 1.05983 0.780396 1.20123 0.650566 1.33278C0.522861 1.46218 0.5 1.55432 0.5 1.60714V13.3929C0.5 13.4457 0.522861 13.5378 0.650566 13.6672C0.780392 13.7988 0.993046 13.9402 1.2953 14.0697C1.89803 14.328 2.76554 14.5 3.75 14.5Z" fill="#C4C4C4" stroke="black"/>
</svg>
