<svg width="15" height="35" viewBox="0 0 15 35" fill="none" xmlns="http://www.w3.org/2000/svg">
<path d="M8.24365 10.466L8.24367 10.466L12.363 20.0776L11.9034 20.2746L12.363 20.0777C12.5383 20.4867 12.5525 20.9911 12.4828 21.3837C12.4475 21.5824 12.384 21.7927 12.2775 21.9678C12.1798 22.1284 11.9695 22.375 11.6193 22.375H3.38073C3.03049 22.375 2.82018 22.1284 2.72253 21.9678C2.61602 21.7927 2.5525 21.5824 2.51721 21.3837C2.44752 20.991 2.46174 20.4866 2.63702 20.0777L6.7563 10.466C6.85156 10.2437 7.07671 9.8884 7.49997 9.8884C7.92321 9.8884 8.14837 10.2437 8.24365 10.466ZM14.5 31.25L14.5 3.75C14.5 2.76554 14.328 1.89803 14.0697 1.2953C13.9402 0.993046 13.7988 0.780396 13.6672 0.650566C13.5378 0.522861 13.4457 0.5 13.3929 0.5H1.60714C1.55432 0.5 1.46218 0.522861 1.33278 0.650566C1.20123 0.780396 1.05983 0.993046 0.93029 1.2953C0.671979 1.89803 0.5 2.76554 0.5 3.75L0.5 31.25C0.5 32.2345 0.671979 33.102 0.93029 33.7047C1.05983 34.007 1.20123 34.2196 1.33278 34.3494C1.46218 34.4771 1.55432 34.5 1.60714 34.5H13.3929C13.4457 34.5 13.5378 34.4771 13.6672 34.3494C13.7988 34.2196 13.9402 34.007 14.0697 33.7047C14.328 33.102 14.5 32.2345 14.5 31.25Z" fill="#55505c" stroke="black"/>
</svg>
